<?xml version="1.0" encoding="UTF-8" standalone="no"?>
<svg
   width="750"
   height="600"
   version="1.1"
   id="svg127"
   sodipodi:docname="generator.svg"
   inkscape:version="1.2.2 (732a01da63, 2022-12-09)"
   xmlns:inkscape="http://www.inkscape.org/namespaces/inkscape"
   xmlns:sodipodi="http://sodipodi.sourceforge.net/DTD/sodipodi-0.dtd"
   xmlns:xlink="http://www.w3.org/1999/xlink"
   xmlns="http://www.w3.org/2000/svg"
   xmlns:svg="http://www.w3.org/2000/svg">
  <defs
     id="defs131" />
  <sodipodi:namedview
     id="namedview129"
     pagecolor="#ffffff"
     bordercolor="#999999"
     borderopacity="1"
     inkscape:showpageshadow="0"
     inkscape:pageopacity="0"
     inkscape:pagecheckerboard="0"
     inkscape:deskcolor="#d1d1d1"
     showgrid="false"
     inkscape:zoom="1.3566667"
     inkscape:cx="372.97296"
     inkscape:cy="220.76167"
     inkscape:window-width="1920"
     inkscape:window-height="1001"
     inkscape:window-x="-9"
     inkscape:window-y="-9"
     inkscape:window-maximized="1"
     inkscape:current-layer="g105" />
  <path
     d="m452.2 200.38a114.45 114.45 0 0 0-43.524-57.062l15.339 44.391-66.886 23.112-23.112-66.886 44.391-15.339a114.45 114.45 0 0 0-71.759 0.98908 114.45 114.45 0 0 0-57.062 43.524l44.391-15.339 23.112 66.886-66.888 23.112-15.338-44.389a114.45 114.45 0 0 0 0.9884 71.757 114.45 114.45 0 0 0 43.526 57.063l-15.339-44.391 66.886-23.112 23.112 66.886-44.391 15.339a114.45 114.45 0 0 0 71.759-0.9892 114.45 114.45 0 0 0 57.062-43.523l-44.391 15.339-23.112-66.888 66.886-23.112 15.339 44.393a114.45 114.45 0 0 0-0.9898-71.761z"
     fill="#ccc"
     stroke="#000"
     stroke-linecap="round"
     id="path2" />
  <g
     fill="none"
     stroke="#cc3133"
     stroke-linecap="square"
     stroke-width="4"
     id="g28">
    <path
       d="m344 172.7-40.041 13.838"
       id="path4" />
    <path
       d="m341.5 165.58-40.04 13.838"
       id="path6" />
    <path
       d="m339 158.46-40.04 13.838"
       id="path8" />
    <path
       d="m279 237.83 13.838 40.04"
       id="path10" />
    <path
       d="m271.8 240.29 13.838 40.04"
       id="path12" />
    <path
       d="m264.7 242.75 13.838 40.04"
       id="path14" />
    <path
       d="m344.1 302.82 40.04-13.838"
       id="path16" />
    <path
       d="m346.6 309.94 40.04-13.838"
       id="path18" />
    <path
       d="m349 317.06 40.04-13.838"
       id="path20" />
    <path
       d="m409.1 237.69-13.838-40.04"
       id="path22" />
    <path
       d="m416.2 235.23-13.838-40.04"
       id="path24" />
    <path
       d="m423.3 232.77-13.838-40.04"
       id="path26" />
  </g>
  <circle
     cx="344"
     cy="237.76"
     r="22.467"
     fill="#cc3133"
     id="circle30" />
  <g
     fill="#ccc"
     stroke="#000"
     id="g48">
    <g
       stroke-linecap="round"
       id="g38">
      <path
         d="m551.7 237.76a207.65 207.65 0 0 0-21.756-92.53h-70.871c16.858 27.92 25.768 59.916 25.768 92.53 0 32.615-8.9099 64.61-25.768 92.53h70.871a207.65 207.65 0 0 0 21.756-92.53z"
         id="path32" />
      <path
         d="m344 445.39a207.65 207.65 0 0 0 92.53-21.756v-70.871c-27.92 16.858-59.916 25.768-92.53 25.768-32.615 0-64.61-8.9099-92.53-25.768v70.871a207.65 207.65 0 0 0 92.53 21.756z"
         id="path34" />
      <path
         d="m136.4 237.76a207.65 207.65 0 0 0 21.756 92.53h70.871c-16.858-27.92-25.768-59.916-25.768-92.53 0-32.615 8.9099-64.61 25.768-92.53h-70.871a207.65 207.65 0 0 0-21.756 92.53z"
         id="path36" />
    </g>
    <path
       d="m252.3 423.29-35.415 62.378h254.26l-35.415-62.378a206.97 206.97 0 0 1-91.717 21.431 206.97 206.97 0 0 1-91.717-21.431z"
       stroke-linecap="square"
       id="path40" />
    <path
       d="m344 30.11a207.65 207.65 0 0 0-92.53 21.756v70.871c27.92-16.858 59.916-25.768 92.53-25.768 32.615 0 64.61 8.9099 92.53 25.768v-70.871a207.65 207.65 0 0 0-92.53-21.756z"
       stroke-linecap="round"
       id="path42" />
    <path
       d="m540.1 237.76a196.11 196.11 0 0 0-196.11-196.11 196.11 196.11 0 0 0-196.11 196.11 196.11 196.11 0 0 0 196.11 196.11 196.11 196.11 0 0 0 196.11-196.11m21.136 0a217.25 217.25 0 0 1-217.25 217.25 217.25 217.25 0 0 1-217.25-217.25 217.25 217.25 0 0 1 217.25-217.25 217.25 217.25 0 0 1 217.25 217.25"
       stroke-linecap="round"
       id="path44" />
    <rect
       x="67.5"
       y="465.99"
       width="553.07"
       height="46.089"
       stroke-linecap="square"
       id="rect46" />
  </g>
  <circle
     cx="344"
     cy="237.76"
     r="13.276"
     fill="none"
     stroke="#980f08"
     stroke-linecap="square"
     stroke-width="6"
     id="circle50" />
  <circle
     cx="344"
     cy="237.76"
     r="5.1061"
     id="circle52" />
  <g
     fill="none"
     stroke="#f7c910"
     stroke-linecap="square"
     stroke-width="6"
     id="g70">
    <path
       d="m196.8 330.29v-185.06"
       id="path54" />
    <path
       d="m186.7 330.29v-185.06"
       id="path56" />
    <path
       d="m436.6 384.99h-185.06"
       id="path58" />
    <path
       d="m251.5 395.09h185.06v172.48"
       id="path60" />
    <path
       d="m491.2 145.23v422.35"
       id="path62" />
    <path
       d="m501.4 145.23v185.06"
       id="path64" />
    <path
       d="m251.5 90.53h185.06"
       id="path66" />
    <path
       d="m251.5 80.42h185.06"
       id="path68" />
  </g>
  <path
     d="m532 523.39v32.621h-11.95l17.698 31.654 18.474-31.654h-11.948v-32.621z"
     fill="#cc3133"
     id="path72" />
  <g
     fill="none"
     stroke="#000"
     stroke-linecap="round"
     stroke-width="2"
     id="g88">
    <path
       d="m491.2 407.89h37.406"
       id="path74" />
    <path
       d="m386.6 296.1h183.53"
       id="path76" />
    <path
       d="m445.8 202.6v-183.31h203.2"
       id="path78" />
    <path
       d="m165.1 179.62h-16.849v-136.41"
       id="path80" />
    <path
       d="m360.2 224.84h223.76"
       id="path82" />
    <path
       d="m344 234.95h-168.83v182.98"
       id="path84" />
    <path
       d="m321.8 46.96v-16.849h-173.58"
       id="path86" />
  </g>
  <g
     id="a"
     font-family="DejaVu Sans"
     font-size="25"
     font-weight="bold"
     text-anchor="middle">
    <text
       transform="rotate(250.94)"
       x="-337"
       y="164"
       id="text90">N</text>
    <text
       transform="rotate(-19.063)"
       x="247"
       y="254"
       id="text92">S</text>
  </g>
  <use
     transform="rotate(180 343.99 237.76)"
     xlink:href="#a"
     id="use95" />
  <g
     font-family="'DejaVu Sans'"
     font-size="20px"
     font-weight="bold"
     id="g125">
    <g
       text-anchor="end"
       id="g105">
      <text
         x="167"
         y="420"
         id="text97"
         style="-inkscape-font-specification:'DejaVu Sans, Bold';font-family:'DejaVu Sans';font-weight:bold;font-style:normal;font-stretch:normal;font-variant:normal;font-size:20px;font-variant-ligatures:normal;font-variant-caps:normal;font-variant-numeric:normal;font-variant-east-asian:normal"><tspan
           sodipodi:role="line"
           id="tspan536">Eje de giro</tspan></text>
      <text
         id="text103"
         style="font-style:normal;font-variant:normal;font-weight:bold;font-stretch:normal;font-size:20px;font-family:'DejaVu Sans';-inkscape-font-specification:'DejaVu Sans, Bold';font-variant-ligatures:normal;font-variant-caps:normal;font-variant-numeric:normal;font-variant-east-asian:normal"
         x="139.20885"
         y="38.22113"><tspan
           sodipodi:role="line"
           id="tspan353"
           x="139.20885"
           y="38.22113">Estátor</tspan></text>
    </g>
    <text
       x="656"
       y="26"
       id="text107">Rotor</text>
    <text
       x="537"
       y="414"
       id="text109"
       style="-inkscape-font-specification:'DejaVu Sans, Bold';font-family:'DejaVu Sans';font-weight:bold;font-style:normal;font-stretch:normal;font-variant:normal;font-size:20px;font-variant-ligatures:normal;font-variant-caps:normal;font-variant-numeric:normal;font-variant-east-asian:normal"><tspan
         sodipodi:role="line"
         id="tspan625">Corriente alterna</tspan></text>
    <text
       x="551"
       y="546"
       id="text111"
       style="font-style:normal;font-variant:normal;font-weight:bold;font-stretch:normal;font-size:20px;font-family:'DejaVu Sans';-inkscape-font-specification:'DejaVu Sans, Bold';font-variant-ligatures:normal;font-variant-caps:normal;font-variant-numeric:normal;font-variant-east-asian:normal"><tspan
         sodipodi:role="line"
         id="tspan627"
         x="551"
         y="546">Energía eléctrica</tspan></text>
    <text
       id="text117"
       style="font-style:normal;font-variant:normal;font-weight:bold;font-stretch:normal;font-size:20px;font-family:'DejaVu Sans';-inkscape-font-specification:'DejaVu Sans, Bold';font-variant-ligatures:normal;font-variant-caps:normal;font-variant-numeric:normal;font-variant-east-asian:normal"
       x="596"
       y="204"><tspan
         sodipodi:role="line"
         id="tspan613"
         x="596"
         y="204">Anillos</tspan><tspan
         sodipodi:role="line"
         id="tspan615"
         x="596"
         y="229">colectores</tspan><tspan
         sodipodi:role="line"
         id="tspan617"
         x="596"
         y="254">y escobillas</tspan></text>
    <text
       id="text123"
       style="font-style:normal;font-variant:normal;font-weight:bold;font-stretch:normal;font-size:20px;font-family:'DejaVu Sans';-inkscape-font-specification:'DejaVu Sans, Bold';font-variant-ligatures:normal;font-variant-caps:normal;font-variant-numeric:normal;font-variant-east-asian:normal"
       x="576.93854"
       y="290.31451"><tspan
         sodipodi:role="line"
         id="tspan621"
         x="576.93854"
         y="290.31451">Corriente</tspan><tspan
         sodipodi:role="line"
         id="tspan623"
         x="576.93854"
         y="315.31451">continua</tspan></text>
  </g>
</svg>
